<?xml version="1.0" encoding="utf-8"?>
<!-- Generator: Adobe Illustrator 23.0.1, SVG Export Plug-In . SVG Version: 6.00 Build 0)  -->
<svg version="1.1" id="Layer_2" xmlns="http://www.w3.org/2000/svg" xmlns:xlink="http://www.w3.org/1999/xlink" x="0px" y="0px"
	 viewBox="0 0 260 80" style="enable-background:new 0 0 260 80;" xml:space="preserve">
<style type="text/css">
	.st0{fill:#FFFFFF;}
</style>
<g>
	<g>
		<path class="st0" d="M122.46,36.74c-0.27,0.66-1.37,0.66-1.63,0l-8.37-21.79c-2.73,7.26-5.55,14.53-8.32,21.79
			c-0.26,0.66-1.5,0.66-1.72-0.04l0.05,0.04L90.81,6.28c-0.22-0.48,0.26-1.06,0.84-1.06h5.28c0.4,0,0.79,0.22,0.84,0.53
			c1.94,5.28,3.61,10.17,5.55,15.49l5.9-15.54v0.04c0.09-0.31,0.44-0.53,0.83-0.53h4.89c0.4,0,0.79,0.22,0.88,0.53V5.71l5.85,15.62
			l5.55-15.58c0.09-0.31,0.48-0.53,0.88-0.53h5.24c0.75,0,1.1,0.53,0.88,1.06L122.46,36.74z"/>
		<path class="st0" d="M166.45,20.76c0,7.79-5.11,15.67-15.14,15.67c-10.17,0-15.19-7.88-15.19-15.67c0-7.79,5.02-15.63,15.19-15.63
			C161.34,5.13,166.45,12.97,166.45,20.76z M159.71,20.85c0-4.75-2.86-9.51-8.41-9.51c-5.59,0-8.41,4.75-8.41,9.51
			c0,4.71,2.81,9.38,8.41,9.38C156.85,30.22,159.71,25.55,159.71,20.85z"/>
		<path class="st0" d="M180.37,23.84h-2.25v11.44c0,0.35-0.39,0.75-0.97,0.75h-4.8c-0.53,0-0.88-0.4-0.88-0.75V6.32
			c0-0.4,0.35-0.75,0.88-0.75h9.55c1.8,0,10.56,0.09,10.56,9.2c0,4.58-2.38,7-5.37,8.19c0.92,1.98,1.94,4.23,2.86,6.16l2.69,5.86
			c0.22,0.53-0.09,1.06-0.79,1.06h-5.28c-0.27,0-0.75-0.26-0.84-0.48L180.37,23.84z M178.12,17.98h3.79c1.1,0,3.92-0.22,3.92-3.08
			c0-2.82-3.13-3.13-3.92-3.13h-3.79V17.98z"/>
		<path class="st0" d="M204.71,5.22c7.53,0,18.09,1.72,18.09,15.41c0,13.16-10.43,15.41-18.09,15.41h-4.88
			c-0.53,0-0.93-0.4-0.93-0.75V6.01c0-0.4,0.4-0.79,0.93-0.79H204.71z M205.68,29.56c3.57,0.13,10.3-0.44,10.3-8.94
			c0-6.52-4.45-9.03-10.3-8.94V29.56z"/>
		<path class="st0" d="M240.18,36.96c-3.88,0-7.07-3.26-7.07-7.23c0-3.95,3.2-7.21,7.07-7.21c3.9,0,7.02,3.25,7.02,7.21
			C247.19,33.71,244.07,36.96,240.18,36.96z M251.68,23.34c0.22,0,0.46,0.24,0.46,0.59V35.7c0,0.35-0.24,0.57-0.46,0.57h-2.96
			c-0.24,0-0.48-0.22-0.48-0.57V23.93c0-0.35,0.24-0.59,0.48-0.59H251.68z M240.18,32.85c1.8,0,3.12-1.4,3.12-3.12
			s-1.32-3.09-3.12-3.09c-1.78,0-3.18,1.37-3.18,3.09S238.4,32.85,240.18,32.85z"/>
		<path class="st0" d="M237.24,14.44h3.6V7.56c0-0.32,0.24-0.54,0.48-0.54h2.88c0.24,0,0.48,0.22,0.48,0.54v6.88h6.99
			c0.22,0,0.46,0.21,0.46,0.57v2.98c0,0.35-0.24,0.56-0.46,0.56H233.8c-0.24,0-0.49-0.22-0.49-0.56V6.08c0-0.35,0.25-0.59,0.49-0.59
			h2.96c0.24,0,0.48,0.24,0.48,0.59V14.44z"/>
		<path class="st0" d="M165.19,59.62c0,7.79-5.11,15.67-15.14,15.67c-10.17,0-15.19-7.88-15.19-15.67c0-7.79,5.02-15.63,15.19-15.63
			C160.08,44,165.19,51.83,165.19,59.62z M158.45,59.71c0-4.75-2.86-9.51-8.41-9.51c-5.59,0-8.41,4.75-8.41,9.51
			c0,4.71,2.82,9.38,8.41,9.38C155.59,69.09,158.45,64.42,158.45,59.71z"/>
		<path class="st0" d="M171.48,64.91v-19.5c0-0.4,0.39-0.79,0.93-0.79h4.79c0.53,0,0.93,0.4,0.93,0.79v19.41
			c0.4,2.6,2.6,4.14,5.06,4.14c2.51,0,5.02-1.32,5.02-4.05v-19.5c0-0.4,0.4-0.79,0.93-0.79h4.84c0.48,0,0.88,0.4,0.88,0.79v19.5
			c0,6.56-5.06,10.39-11.66,10.39C176.71,75.3,171.48,71.29,171.48,64.91z"/>
		<path class="st0" d="M220.38,48.97c0,0.35-0.39,0.75-0.97,0.75h-5.19V73.8c0,0.35-0.4,0.75-0.97,0.75h-4.84
			c-0.53,0-0.93-0.4-0.93-0.75V49.72h-5.24c-0.53,0-0.92-0.39-0.92-0.75v-4.45c0-0.39,0.4-0.79,0.92-0.79h17.17
			c0.57,0,0.97,0.4,0.97,0.79V48.97z"/>
		<path class="st0" d="M250.95,43.71c0.57,0,0.97,0.4,0.97,0.79v29.27c0,0.35-0.4,0.75-0.97,0.75h-4.88c-0.53,0-0.93-0.4-0.93-0.75
			V62.33h-10.3v11.45c0,0.35-0.4,0.75-0.97,0.75h-4.89c-0.53,0-0.92-0.4-0.92-0.75V44.5c0-0.39,0.4-0.79,0.92-0.79h4.89
			c0.57,0,0.97,0.4,0.97,0.79v11.36h10.3V44.5c0-0.39,0.4-0.79,0.93-0.79H250.95z"/>
		<path class="st0" d="M129.04,73.59c0,0.35-0.39,0.74-0.95,0.74h-4.76c-0.56,0-0.96-0.39-0.96-0.74V59.55
			c-2.16,4.37-4.38,8.75-6.54,13.13c-0.04,0.17-0.56,0.48-0.78,0.48h-4.55c-0.26,0-0.74-0.26-0.82-0.48v0.04l-7.06-13.64v14.51
			c0,0.35-0.39,0.74-0.91,0.74h-4.85c-0.61,0-0.87-0.39-0.87-0.74V44.74c0-0.39,0.26-0.78,0.87-0.78h4.94c0.3,0,0.74,0.3,0.82,0.47
			l10.14,20.62l9.62-20.62c0.09-0.21,0.61-0.47,0.87-0.47h4.85c0.56,0,0.95,0.39,0.95,0.78V73.59z"/>
	</g>
	<g>
		<polygon class="st0" points="39.47,29.04 40.28,28.05 39.46,29.04 		"/>
		<polygon class="st0" points="39.45,29.06 39.45,29.06 37.49,31.45 		"/>
		<path class="st0" d="M59.48,31.93v-0.27h-0.02c-0.4-5.56-3.51-10.39-8.02-13.15c-1.07-0.65-2.21-1.19-3.42-1.59
			c-1.68-0.56-3.48-0.87-5.35-0.87c-1.87,0-3.67,0.31-5.35,0.88c-1.21,0.41-2.35,0.94-3.42,1.59c-4.82,2.95-8.05,8.27-8.07,14.32
			h-0.03v3.3v5.9v4.15c0,0.77,0.48,1.45,1.2,1.71c0.72,0.26,1.53,0.05,2.02-0.54l0.83-1l1.14-1.39l1.09-1.31l1.09-1.33l2.99-3.63
			l1.09-1.33l1.11-1.35l4.22-5.12l3.75,4.45l0.56,0.68l1.11,1.35l1.09,1.33l3.02,3.65l1.1,1.32l1.08,1.31l1.92,2.32
			c0.35,0.44,0.88,0.68,1.42,0.68c0.2,0,0.41-0.03,0.61-0.11c0.73-0.26,1.21-0.95,1.21-1.72v-4.46v-5.7v-2.21
			c0.02-0.32,0.03-0.63,0.03-0.95C59.5,32.56,59.49,32.25,59.48,31.93z M54.42,39.35l-3.37-4.06c0.23-0.78,0.35-1.6,0.35-2.44
			c0-3.34-1.88-6.25-4.64-7.73c-1.15-0.61-2.44-0.97-3.82-1.02c-0.1,0-0.2-0.02-0.3-0.02c-0.08,0-0.16,0.01-0.25,0.01
			c-1.38,0.04-2.68,0.39-3.83,1c-2.78,1.47-4.68,4.39-4.68,7.75c0,0.88,0.13,1.73,0.38,2.53l-3.31,4.02
			c-1.08-1.93-1.69-4.15-1.69-6.51c0-4.92,2.67-9.22,6.64-11.56c1.09-0.64,2.27-1.13,3.52-1.44c1.04-0.26,2.13-0.42,3.26-0.42
			c1.12,0,2.21,0.15,3.26,0.42c1.25,0.31,2.44,0.8,3.52,1.44c3.96,2.34,6.64,6.64,6.64,11.56C56.09,35.23,55.48,37.43,54.42,39.35z"
			/>
		<polygon class="st0" points="39.45,29.06 39.46,29.04 39.45,29.04 		"/>
		<path class="st0" d="M42.59,31.66c0.41,0,0.77,0.18,1.01,0.47c0.02,0.03,0.05,0.05,0.08,0.08l0.63,0.75l2.03,2.42l-3.75-4.45
			l-4.22,5.12l3.36-4.07C41.96,31.78,42.26,31.66,42.59,31.66z"/>
		<path class="st0" d="M75.62,4.7h-18c-0.6,0-1.17,0.29-1.51,0.78l-8.09,11.44c1.2,0.4,2.35,0.94,3.42,1.59L56.75,11h0.02
			c1.39-1.66,1.95-2.58,4.15-2.59h10.34c1.23,0,2.25,0.86,2.52,2v57.69c-0.05,1.39-1.18,2.5-2.58,2.5v0L58.31,70.6
			c-1.8-0.14-2.38-1.04-3.66-2.57L44.29,55.45c-0.29-0.53-0.82-0.86-1.41-0.93c-0.07-0.01-0.14-0.03-0.21-0.03h0
			c-0.67,0-1.3,0.37-1.62,0.95L30.76,68.07c-1.36,1.62-1.93,2.53-4.05,2.57l-11.3-0.02l-1.25,0v-0.01c-1.43,0-2.59-1.16-2.59-2.59
			V11c0-1.43,1.16-2.59,2.59-2.59h10.7c1.79,0.12,2.39,0.96,3.59,2.4l5.45,7.7c1.07-0.65,2.21-1.19,3.42-1.59L29.23,5.49
			c-0.35-0.49-0.91-0.78-1.51-0.78h-18c-1.02,0-1.85,0.83-1.85,1.85v65.91c0,1.02,0.83,1.85,1.85,1.85l20.04,0.03h0
			c0.67,0,1.29-0.37,1.62-0.96L41.76,60.8c0.23-0.22,0.54-0.36,0.89-0.36c0.41,0,0.77,0.18,1.01,0.47c0.03,0.04,0.07,0.07,0.12,0.11
			l0.6,0.72c0,0,0,0,0,0l0,0l9.66,11.6c0.33,0.59,0.95,0.96,1.62,0.96l19.96,0.01c1.02,0,1.86-0.83,1.86-1.85V6.56
			C77.48,5.54,76.65,4.7,75.62,4.7z"/>
		<path class="st0" d="M26.2,29.72c0-0.05,0-0.1-0.01-0.15c0,0.02,0,0.03,0,0.05C26.2,29.66,26.2,29.69,26.2,29.72z"/>
		<path class="st0" d="M37.99,14.84c-0.28,0-0.54-0.17-0.64-0.45c-0.13-0.35,0.05-0.75,0.4-0.88c0.17-0.06,4.27-1.55,9.78-0.02
			c0.36,0.1,0.58,0.48,0.47,0.84c-0.1,0.36-0.48,0.57-0.84,0.48c-5.09-1.41-8.9-0.03-8.94-0.02C38.15,14.83,38.07,14.84,37.99,14.84
			z"/>
		<path class="st0" d="M36.54,11.72c-0.34,0-0.66-0.2-0.79-0.54c-0.18-0.44,0.04-0.94,0.48-1.11c0.22-0.09,5.6-2.18,12.82-0.02
			c0.45,0.14,0.71,0.61,0.57,1.06c-0.13,0.45-0.61,0.71-1.06,0.58c-6.66-1.99-11.65-0.05-11.7-0.03
			C36.76,11.7,36.65,11.72,36.54,11.72z"/>
		<path class="st0" d="M50.71,8.47c-0.09,0-0.17-0.01-0.26-0.03c-8.76-2.3-15.41-0.05-15.47-0.02c-0.54,0.19-1.12-0.09-1.31-0.63
			c-0.19-0.53,0.09-1.12,0.63-1.3c0.29-0.1,7.28-2.49,16.67-0.02c0.55,0.14,0.88,0.7,0.73,1.25C51.58,8.16,51.16,8.47,50.71,8.47z"
			/>
	</g>
</g>
</svg>
